# xmcd CD database file
#
# Track frame offsets:
#	187
#	15055
#	40202
#	55175
#	70180
#	86832
#	104952
#	119042
#	135730
#	152400
#	172935
#	187690
#	206962
#	228270
#	244757
#	261452
#	279970
#	298067
#
# Disc length: 4147 seconds
#
# Revision: 0
# Processed by: cddbd v1.5.1PL0 Copyright (c) Steve Scherf et al.
# Submitted via: CDex 1.51
#
DISCID=02103112
DTITLE=Various Artist - ディスコ・スーパー・ヒッツ・コレクション　Vol.8
DYEAR=1900
DGENRE=Disco
TTITLE0=吼えろドラゴン／カール・ダグラス
TTITLE1=フライ・ロビン・フライ／シルバー・コンベンション
TTITLE2=恋のペントハウス／アラベスク
TTITLE3=悲しき願い／サンタ・エスメラルダ
TTITLE4=16小節の恋／スタイリスティックス
TTITLE5=キャバレーロに夢中／アラベスク
TTITLE6=ミッドナイト・ラブ・アフェアー／キャロル・ダグラス
TTITLE7=朝日のあたる家〜クァジモド組曲／サンタ・エスメラルダ
TTITLE8=ミッドナイト・ダンサー／アラベスク
TTITLE9=ロッキン・ロール・ベイビー／スタイリスティックス
TTITLE10=ドクター・ドラゴンのテーマ／Dr．ドラゴン＆オリエンタル・エクスプレス
TTITLE11=セイブ・ミー／シルバー・コンベンション
TTITLE12=サムライ／ジンギスカン
TTITLE13=ブラック・マジック／ソフトーンズ
TTITLE14=オー・ガール／シャイ・ライツ
TTITLE15=カット・ザ・ケイク／アヴェレイジ・ホワイト・バンド
TTITLE16=ピック・アップ・ザ・ピーセス／アヴェレイジ・ホワイト・バンド
TTITLE17=好きにならずにいられない／ソフトーンズ
EXTD=
EXTT0=
EXTT1=
EXTT2=
EXTT3=
EXTT4=
EXTT5=
EXTT6=
EXTT7=
EXTT8=
EXTT9=
EXTT10=
EXTT11=
EXTT12=
EXTT13=
EXTT14=
EXTT15=
EXTT16=
EXTT17=
PLAYORDER=
